<mxfile host="app.diagrams.net" agent="Mozilla/5.0 (Windows NT 10.0; Win64; x64) AppleWebKit/537.36 (KHTML, like Gecko) Chrome/131.0.0.0 Safari/537.36 Edg/131.0.0.0" version="25.0.1">
  <diagram name="Page-1" id="jHZRVIaTcb_noFVKRRd8">
    <mxGraphModel dx="910" dy="440" grid="1" gridSize="10" guides="1" tooltips="1" connect="1" arrows="1" fold="1" page="1" pageScale="1" pageWidth="850" pageHeight="1100" math="1" shadow="0">
      <root>
        <mxCell id="0" />
        <mxCell id="1" parent="0" />
        <mxCell id="VsV8L86roVrXqSw0Zf7p-10" value="" style="group" vertex="1" connectable="0" parent="1">
          <mxGeometry x="120" y="80" width="400" height="40" as="geometry" />
        </mxCell>
        <mxCell id="VsV8L86roVrXqSw0Zf7p-1" value="" style="rounded=0;whiteSpace=wrap;html=1;" vertex="1" parent="VsV8L86roVrXqSw0Zf7p-10">
          <mxGeometry x="160" width="240" height="40" as="geometry" />
        </mxCell>
        <mxCell id="VsV8L86roVrXqSw0Zf7p-3" value="z[0]" style="rounded=0;whiteSpace=wrap;html=1;strokeColor=none;fillColor=none;" vertex="1" parent="VsV8L86roVrXqSw0Zf7p-10">
          <mxGeometry x="160" width="40" height="40" as="geometry" />
        </mxCell>
        <mxCell id="VsV8L86roVrXqSw0Zf7p-2" value="" style="rounded=0;whiteSpace=wrap;html=1;" vertex="1" parent="VsV8L86roVrXqSw0Zf7p-10">
          <mxGeometry width="160" height="40" as="geometry" />
        </mxCell>
        <mxCell id="VsV8L86roVrXqSw0Zf7p-4" value="z[1]" style="rounded=0;whiteSpace=wrap;html=1;strokeColor=none;fillColor=none;" vertex="1" parent="VsV8L86roVrXqSw0Zf7p-10">
          <mxGeometry x="200" width="40" height="40" as="geometry" />
        </mxCell>
        <mxCell id="VsV8L86roVrXqSw0Zf7p-5" value="z[N-1]" style="rounded=0;whiteSpace=wrap;html=1;strokeColor=none;fillColor=none;" vertex="1" parent="VsV8L86roVrXqSw0Zf7p-10">
          <mxGeometry x="360" width="40" height="40" as="geometry" />
        </mxCell>
        <mxCell id="VsV8L86roVrXqSw0Zf7p-6" value="z[N-1]" style="rounded=0;whiteSpace=wrap;html=1;strokeColor=none;fillColor=none;" vertex="1" parent="VsV8L86roVrXqSw0Zf7p-10">
          <mxGeometry x="120" width="40" height="40" as="geometry" />
        </mxCell>
        <mxCell id="VsV8L86roVrXqSw0Zf7p-7" value="z[N-L]" style="rounded=0;whiteSpace=wrap;html=1;strokeColor=none;fillColor=none;" vertex="1" parent="VsV8L86roVrXqSw0Zf7p-10">
          <mxGeometry width="40" height="40" as="geometry" />
        </mxCell>
        <mxCell id="VsV8L86roVrXqSw0Zf7p-8" value="$$\cdots$$" style="rounded=0;whiteSpace=wrap;html=1;strokeColor=none;fillColor=none;" vertex="1" parent="VsV8L86roVrXqSw0Zf7p-10">
          <mxGeometry x="240" width="120" height="40" as="geometry" />
        </mxCell>
        <mxCell id="VsV8L86roVrXqSw0Zf7p-9" value="$$\cdots$$" style="rounded=0;whiteSpace=wrap;html=1;strokeColor=none;fillColor=none;" vertex="1" parent="VsV8L86roVrXqSw0Zf7p-10">
          <mxGeometry x="40" width="80" height="40" as="geometry" />
        </mxCell>
      </root>
    </mxGraphModel>
  </diagram>
</mxfile>
